# xmcd
#
# Track frame offsets:
#	150
#	17525
#	30518
#	45844
#	60992
#	79537
#	94218
#	109449
#	125964
#	143285
#
# Disc length: 2084
#
# Revision: 3
# Processed by: cddbd v1.5.1PL0 Copyright (c) Steve Scherf et al.
# Submitted via: audiograbber 1.80.04
# Normalized: r2:DSETVAR1
#
DISCID=7208220a
DTITLE=Various Artist - Laser Hits Country Vol. 5
DYEAR=1999
DGENRE=Country
TTITLE0=Dixie Chicks - Ready To Run
TTITLE1=Martina McBride - I Love You
TTITLE2=Steve Wariner - I'm Already Taken
TTITLE3=Montgomery Gentry - Lonely And Gone
TTITLE4=Mark Wills - She's In Love
TTITLE5=Jessica Andrews - You Go First (Do You Wanna Kiss)
TTITLE6=Jerry Kilgore - Love Trip
TTITLE7=Chad Brock - Lightning Does The Work
TTITLE8=Bryan White - You're Still Beautiful To Me
TTITLE9=Shane Minor - Ordinary Love
EXTD=
EXTT0=
EXTT1=
EXTT2=
EXTT3=
EXTT4=
EXTT5=
EXTT6=
EXTT7=
EXTT8=
EXTT9=
PLAYORDER=
